# Rhino

mtllib floor.mtl
usemtl diffuse_Black
v -17.992443084716797 -15.875689506530762 2.4951663017272949
v -17.992443084716797 -15.875689506530762 4.093874454498291
v 18.550886154174805 -15.875689506530762 2.4951663017272949
v 18.550886154174805 -15.875689506530762 4.093874454498291
v 18.550886154174805 -15.875689506530762 2.4951663017272949
v 18.550886154174805 -15.875689506530762 4.093874454498291
v 18.550886154174805 16.009368896484375 2.4951663017272949
v 18.550886154174805 16.009368896484375 4.093874454498291
v 18.550886154174805 16.009368896484375 2.4951663017272949
v 18.550886154174805 16.009368896484375 4.093874454498291
v -17.992443084716797 16.009368896484375 2.4951663017272949
v -17.992443084716797 16.009368896484375 4.093874454498291
v -17.992443084716797 16.009368896484375 2.4951663017272949
v -17.992443084716797 16.009368896484375 4.093874454498291
v -17.992443084716797 -15.875689506530762 2.4951663017272949
v -17.992443084716797 -15.875689506530762 4.093874454498291
v -17.992443084716797 -15.875689506530762 2.4951663017272949
v 18.550886154174805 -15.875689506530762 2.4951663017272949
v 18.550886154174805 16.009368896484375 2.4951663017272949
v -17.992443084716797 16.009368896484375 2.4951663017272949
v -17.992443084716797 -15.875689506530762 4.093874454498291
v 18.550886154174805 -15.875689506530762 4.093874454498291
v 18.550886154174805 16.009368896484375 4.093874454498291
v -17.992443084716797 16.009368896484375 4.093874454498291
vt 0 0
vt 0 0.51222813129425049
vt 0.26701876521110535 0
vt 0.26701876521110535 0.51222813129425049
vt 0.26701876521110535 0
vt 0.26701876521110535 0.51222813129425049
vt 0.5 0
vt 0.5 0.51222813129425049
vt 0.5 0
vt 0.5 0.51222813129425049
vt 0.76701879501342773 0
vt 0.76701879501342773 0.51222813129425049
vt 0.76701879501342773 0
vt 0.76701879501342773 0.51222813129425049
vt 1 0
vt 1 0.51222813129425049
vt 0 1
vt 0.26701876521110535 1
vt 0.26701876521110535 0.51222860813140869
vt 0 0.51222860813140869
vt 0.73298120498657227 0.51222860813140869
vt 1 0.51222860813140869
vt 1 1
vt 0.73298120498657227 1
vn 0 -1 0
vn 0 -1 0
vn 0 -1 0
vn 0 -1 0
vn 1 0 0
vn 1 0 0
vn 1 0 0
vn 1 0 0
vn 0 1 0
vn 0 1 0
vn 0 1 0
vn 0 1 0
vn -1 0 0
vn -1 0 0
vn -1 0 0
vn -1 0 0
vn 0 0 -1
vn 0 0 -1
vn 0 0 -1
vn 0 0 -1
vn 0 0 1
vn 0 0 1
vn 0 0 1
vn 0 0 1
f 1/1/1 3/3/3 4/4/4 2/2/2
f 5/5/5 7/7/7 8/8/8 6/6/6
f 9/9/9 11/11/11 12/12/12 10/10/10
f 13/13/13 15/15/15 16/16/16 14/14/14
f 18/18/18 17/17/17 20/20/20
f 20/20/20 19/19/19 18/18/18
f 22/22/22 24/24/24 21/21/21
f 24/24/24 22/22/22 23/23/23